<svg fill="#fff" id="_x31__px" height="512" viewBox="0 0 24 24" width="512" xmlns="http://www.w3.org/2000/svg">
    <path d="m17.5 13c-3.584 0-6.5-2.916-6.5-6.5s2.916-6.5 6.5-6.5 6.5 2.916 6.5 6.5-2.916 6.5-6.5 6.5zm0-12c-3.032 0-5.5 2.467-5.5 5.5s2.468 5.5 5.5 5.5 5.5-2.467 5.5-5.5-2.468-5.5-5.5-5.5z"/>
    <path d="m16.5 9c-.133 0-.26-.053-.354-.146l-2-2c-.195-.195-.195-.512 0-.707s.512-.195.707 0l1.622 1.622 3.148-3.598c.183-.209.498-.229.705-.047.208.182.229.498.047.706l-3.5 4c-.09.104-.22.165-.358.17-.006 0-.011 0-.017 0z"/>
    <path d="m19.5 17h-13c-.238 0-.443-.168-.49-.402l-2-10c-.03-.147.009-.299.103-.415s.238-.183.387-.183h4c.276 0 .5.224.5.5s-.224.5-.5.5h-3.39l1.8 9h12.18l.277-1.385c.055-.272.329-.445.588-.392.271.054.447.317.393.588l-.357 1.787c-.048.234-.253.402-.491.402z"/>
    <path d="m6.499 17c-.233 0-.441-.164-.489-.402l-2.479-12.394c-.139-.699-.759-1.206-1.471-1.206h-.001l-1.558.002c-.001 0-.001 0-.001 0-.276 0-.5-.224-.5-.5s.224-.5.499-.5l1.558-.002h.003c1.188 0 2.219.845 2.452 2.01l2.478 12.394c.055.271-.121.534-.393.588-.032.007-.065.01-.098.01z"/>
    <path d="m21.5 19h-17c-.827 0-1.5-.673-1.5-1.5s.673-1.5 1.5-1.5h2c.276 0 .5.224.5.5s-.224.5-.5.5h-2c-.275 0-.5.224-.5.5s.225.5.5.5h17c.276 0 .5.224.5.5s-.224.5-.5.5z"/>
    <path d="m8 24c-1.103 0-2-.897-2-2s.897-2 2-2 2 .897 2 2-.897 2-2 2zm0-3c-.552 0-1 .449-1 1s.448 1 1 1 1-.449 1-1-.448-1-1-1z"/>
    <path d="m17 24c-1.103 0-2-.897-2-2s.897-2 2-2 2 .897 2 2-.897 2-2 2zm0-3c-.552 0-1 .449-1 1s.448 1 1 1 1-.449 1-1-.448-1-1-1z"/>
</svg>
